<svg id="Layer_2" data-name="Layer 2" xmlns="http://www.w3.org/2000/svg" viewBox="0 0 191.21 1006.58"><defs><style>.cls-1{fill:none;stroke:#ba0000;stroke-miterlimit:10;stroke-width:8px;}</style></defs><title>maplinenodots</title><path class="cls-1" d="M475.17,108.16c3.6,2.84,8.91,7.88,11.49,15.52,4,11.89-2.55,18.27.82,32.44,1.44,6.07,2.58,4.62,10.52,20.82,6.54,13.35,9.81,20,11.23,27.18,2.94,14.81-.62,27.57-2.47,33.91-4.82,16.58-10.48,16.55-11.46,29.42-.82,10.66,2,24.69,2,24.92a84.36,84.36,0,0,0-3.37,20.34c-.7,17,4,30.13,7.68,40.31,1.58,4.33.59,1,11.45,25,0,0,2.71,6,14.71,32.92C548.21,429,555.28,446,558,454.8a212.46,212.46,0,0,1,6.65,32.57c.72,5.6.81,8,2.15,19.09,2.25,18.57,2.6,16.74,3.09,23.23a184.75,184.75,0,0,1-1.53,38,70.33,70.33,0,0,0,1.71,23.54c.95,3.77,1.74,5.52,8.6,22,5.22,12.53,7.84,18.82,8.29,20.6,1.05,4.16,1.12,6.14,2.11,28.52.77,17.58.85,19,1.39,22.16,2.37,13.65,5.82,14.73,6.69,23.14.32,3.11.47,8.91-12.44,34.72-12,24-14.53,23.8-17.42,35.12s-4.54,27.7-4.57,27.86a43.58,43.58,0,0,1,10.42,17.21c3.34,10.77-.78,13.94,1,26.61,2,14.84,9.95,27.18,14.17,33.77,3.56,5.55,6.15,8.4,9.27,15.3A81.93,81.93,0,0,1,603,915.87c2.89,12.28,9.23,20.74,18.31,32.83,21.18,28.21,39.84,30.73,38.52,42-.71,6.1-8.53,11.21-24.15,21.42-15,9.78-22.49,11.2-27.22,20.67-.77,1.54-5.08,10.17-1.77,17.8,2.1,4.82,5.28,4.74,11.93,11.07,7.32,7,5.14,8.68,13.5,18a147.23,147.23,0,0,0,15.63,14.59l-9.6,15.23" transform="translate(-472.69 -105.02)"/></svg>