<?xml version="1.0" encoding="utf-8"?>
<!-- Generator: Adobe Illustrator 21.1.0, SVG Export Plug-In . SVG Version: 6.00 Build 0)  -->
<svg version="1.1" xmlns="http://www.w3.org/2000/svg" xmlns:xlink="http://www.w3.org/1999/xlink" x="0px" y="0px"
	 viewBox="0 0 300 1200" style="enable-background:new 0 0 300 1200;" xml:space="preserve">
<style type="text/css">
	.st0{fill:none;stroke:#BA0000;stroke-width:8;stroke-miterlimit:10;}
	.st1{fill:none;}
	.st2{fill:#FFFFFF;}
	.st3{font-family:'Avenir-Black';}
	.st4{font-size:28.2057px;}
	.st5{stroke:#FFFFFF;stroke-width:8;stroke-miterlimit:10;}
</style>
<g id="Layer_2">
	<path class="st0" d="M10.2,13.1c3.6,3.3,8.9,9.3,11.5,18.2c4,14-2.5,21.5,0.8,38.1c1.4,7.1,2.6,5.4,10.5,24.5
		c6.5,15.7,9.8,23.5,11.2,31.9c2.9,17.4-0.6,32.4-2.5,39.9c-4.8,19.5-10.5,19.5-11.5,34.6c-0.8,12.5,2,29,2,29.3
		c-1.4,5.5-3,13.8-3.4,23.9c-0.7,19.9,4,35.4,7.7,47.4c1.6,5.1,0.6,1.2,11.5,29.3c0,0,2.7,7,14.7,38.7
		c20.4,21.3,27.5,41.3,30.2,51.6c2.4,8.9,5.1,23.9,6.7,38.3c0.7,6.6,0.8,9.4,2.1,22.4c2.2,21.8,1.9,19.7,3.1,27.3
		c3.1,19.5-1.5,44.5-1.5,44.7c-0.9,12.2,0.4,21.5,1.7,27.7c0.9,4.4,1.7,6.5,8.6,25.8c5.2,14.7,7.8,22.1,8.3,24.2
		c1.1,4.9,1.1,7.2,2.1,33.5c0.8,20.7,0.8,22.3,1.4,26c2.4,16,5.8,17.3,6.7,27.2c0.3,3.7,0.5,10.5-12.4,40.8
		c-12,28.2-14.5,28-17.4,41.3c-2.9,13.2-4.5,32.6-4.6,32.7c3.5,4.3,8,11,10.4,20.2c3.3,12.7-0.8,16.4,1,31.3
		c2,17.4,9.9,31.9,14.2,39.7c3.6,6.5,6.2,9.9,9.3,18c3.6,9.3,4.6,16.3,5.4,20.7c2.9,14.4,9.2,24.4,18.3,38.6
		c21.2,33.2,39.8,36.1,38.5,49.4c-0.7,7.2-8.5,13.2-24.1,25.2c-15,11.5-22.5,13.2-27.2,24.3c-0.8,1.8-5.1,12-1.8,20.9
		c2.1,5.7,5.3,5.6,11.9,13c7.3,8.2,5.1,10.2,13.5,21.1c6.9,9,15.6,17.2,15.6,17.1c0,0-3.3,6.2-9.6,17.9"/>
</g>
<g id="Layer_1">
	<rect x="40.5" y="0.2" class="st1" width="92.5" height="32.6"/>
	<text transform="matrix(0.8509 0 0 1 40.5293 21.5562)" class="st2 st3 st4">Nairobi</text>
	<rect x="206.5" y="1161.4" class="st1" width="76.5" height="32.6"/>
	<text transform="matrix(0.8509 0 0 1 206.5293 1182.6914)" class="st2 st3 st4">Kwale</text>
	<path class="st5" d="M22.7,23.8c-3.7,6.9-11.4,8.9-17.2,4.6S-2.1,15,1.6,8.1S13-0.8,18.8,3.5S26.4,16.9,22.7,23.8z"/>
	<path class="st5" d="M191.7,1184.8c-3.7,6.9-11.4,8.9-17.2,4.6c-5.8-4.3-7.6-13.4-3.9-20.3s11.4-8.9,17.2-4.6
		C193.6,1168.8,195.3,1177.9,191.7,1184.8z"/>
</g>
</svg>
